<?xml version="1.0" encoding="utf-8"?>
<svg width="24px" height="14px" viewBox="0 0 24 24" version="1.1" xmlns:xlink="http://www.w3.org/1999/xlink" xmlns="http://www.w3.org/2000/svg">
    <path fill="#D3D3D3" fill-rule="evenodd" d="M22.001 5L1.999 5Q1.9008 5 1.80306 5.00963Q1.70533 5.01925 1.60901 5.03841Q1.5127 5.05757 1.41872 5.08608Q1.32474 5.11458 1.23402 5.15216Q1.14329 5.18975 1.05668 5.23604Q0.970069 5.28233 0.888415 5.33689Q0.806761 5.39145 0.730848 5.45375Q0.654935 5.51605 0.585494 5.58549Q0.516052 5.65493 0.453752 5.73085Q0.391452 5.80676 0.336892 5.88841Q0.282333 5.97007 0.236039 6.05668Q0.189746 6.14329 0.152165 6.23402Q0.114584 6.32475 0.0860763 6.41872Q0.057569 6.5127 0.0384102 6.60901Q0.0192515 6.70533 0.00962573 6.80306Q0 6.9008 0 6.999L0 17.001Q0 17.0992 0.00962573 17.1969Q0.0192515 17.2947 0.0384102 17.391Q0.057569 17.4873 0.0860763 17.5813Q0.114584 17.6753 0.152165 17.766Q0.189746 17.8567 0.236039 17.9433Q0.282333 18.0299 0.336892 18.1116Q0.391452 18.1932 0.453752 18.2692Q0.516052 18.3451 0.585494 18.4145Q0.654935 18.4839 0.730848 18.5462Q0.806761 18.6085 0.888415 18.6631Q0.970069 18.7177 1.05668 18.764Q1.14329 18.8103 1.23402 18.8478Q1.32474 18.8854 1.41872 18.9139Q1.5127 18.9424 1.60901 18.9616Q1.70533 18.9807 1.80306 18.9904Q1.9008 19 1.999 19L9.14286 19L11.1326 15.5179Q11.1982 15.4032 11.2912 15.3095Q11.3843 15.2158 11.4986 15.1495Q11.6128 15.0832 11.7404 15.0489Q11.8679 15.0145 12 15.0145Q12.1321 15.0145 12.2596 15.0489Q12.3872 15.0832 12.5014 15.1495Q12.6157 15.2158 12.7088 15.3095Q12.8018 15.4032 12.8674 15.5179L14.8571 19L22.001 19Q22.0992 19 22.1969 18.9904Q22.2947 18.9807 22.391 18.9616Q22.4873 18.9424 22.5813 18.9139Q22.6753 18.8854 22.766 18.8478Q22.8567 18.8103 22.9433 18.764Q23.0299 18.7177 23.1116 18.6631Q23.1932 18.6085 23.2691 18.5462Q23.3451 18.4839 23.4145 18.4145Q23.4839 18.3451 23.5462 18.2692Q23.6085 18.1932 23.6631 18.1116Q23.7177 18.0299 23.764 17.9433Q23.8103 17.8567 23.8478 17.766Q23.8854 17.6753 23.9139 17.5813Q23.9424 17.4873 23.9616 17.391Q23.9807 17.2947 23.9904 17.1969Q24 17.0992 24 17.001L24 6.999Q24 6.9008 23.9904 6.80306Q23.9807 6.70533 23.9616 6.60901Q23.9424 6.5127 23.9139 6.41872Q23.8854 6.32475 23.8478 6.23402Q23.8103 6.14329 23.764 6.05668Q23.7177 5.97007 23.6631 5.88841Q23.6085 5.80676 23.5462 5.73085Q23.4839 5.65493 23.4145 5.58549Q23.3451 5.51605 23.2691 5.45375Q23.1932 5.39145 23.1116 5.33689Q23.0299 5.28233 22.9433 5.23604Q22.8567 5.18975 22.766 5.15216Q22.6753 5.11458 22.5813 5.08608Q22.4873 5.05757 22.391 5.03841Q22.2947 5.01925 22.1969 5.00963Q22.0992 5 22.001 5ZM4 12C4 10.3431 5.34315 9 7 9C8.65685 9 10 10.3431 10 12C10 13.6569 8.65685 15 7 15C5.34315 15 4 13.6569 4 12ZM17 9C15.3431 9 14 10.3431 14 12C14 13.6569 15.3431 15 17 15C18.6569 15 20 13.6569 20 12C20 10.3431 18.6569 9 17 9Z"/>
</svg>
